<svg xmlns="http://www.w3.org/2000/svg" xmlns:xlink="http://www.w3.org/1999/xlink" width="500" zoomAndPan="magnify" viewBox="0 0 375 374.999991" height="500" preserveAspectRatio="xMidYMid meet" version="1.2"><defs><clipPath id="a1ee0d2c9a"><path d="M 0 43.125 L 375 43.125 L 375 204 L 0 204 Z M 0 43.125 "/></clipPath><clipPath id="94242365d3"><path d="M 151 305 L 178 305 L 178 331.875 L 151 331.875 Z M 151 305 "/></clipPath><clipPath id="f40d71b6f9"><path d="M 197 305 L 224 305 L 224 331.875 L 197 331.875 Z M 197 305 "/></clipPath></defs><g id="35e7f01a1b"><g clip-rule="nonzero" clip-path="url(#a1ee0d2c9a)"><path style=" stroke:none;fill-rule:nonzero;fill:#0a492b;fill-opacity:1;" d="M 187.519531 43.121094 L 0.0273438 151.367188 L 0.0273438 203.886719 L 187.519531 95.636719 L 375.011719 203.886719 L 375.011719 151.367188 L 187.519531 43.121094 "/></g><path style=" stroke:none;fill-rule:nonzero;fill:#00bf63;fill-opacity:1;" d="M 187.519531 145.40625 L 0.0273438 253.652344 L 0.0273438 306.171875 L 187.519531 197.921875 L 375.011719 306.171875 L 375.011719 253.652344 L 187.519531 145.40625 "/><path style=" stroke:none;fill-rule:nonzero;fill:#3871c1;fill-opacity:1;" d="M 177.191406 291.105469 L 151.246094 291.105469 L 151.246094 265.160156 L 177.191406 265.160156 L 177.191406 291.105469 "/><path style=" stroke:none;fill-rule:nonzero;fill:#3871c1;fill-opacity:1;" d="M 223.792969 291.105469 L 197.847656 291.105469 L 197.847656 265.160156 L 223.792969 265.160156 L 223.792969 291.105469 "/><g clip-rule="nonzero" clip-path="url(#94242365d3)"><path style=" stroke:none;fill-rule:nonzero;fill:#3871c1;fill-opacity:1;" d="M 177.191406 331.878906 L 151.246094 331.878906 L 151.246094 305.933594 L 177.191406 305.933594 L 177.191406 331.878906 "/></g><g clip-rule="nonzero" clip-path="url(#f40d71b6f9)"><path style=" stroke:none;fill-rule:nonzero;fill:#3871c1;fill-opacity:1;" d="M 223.792969 331.878906 L 197.847656 331.878906 L 197.847656 305.933594 L 223.792969 305.933594 L 223.792969 331.878906 "/></g><path style="fill:none;stroke-width:4;stroke-linecap:butt;stroke-linejoin:miter;stroke:#000000;stroke-opacity:1;stroke-miterlimit:4;" d="M 0.00000516333 2.000029 L 160.000016 2.000029 " transform="matrix(0.75,0,0,0.75,127.499996,334.499978)"/></g></svg>